# Blender 5.1.1
# www.blender.org
mtllib goblet.mtl
o Circle
v 0.000000 0.000000 -0.564230
v -0.398971 0.000000 -0.398971
v -0.564230 0.000000 0.000000
v -0.398971 0.000000 0.398971
v 0.000000 0.000000 0.564230
v 0.398971 0.000000 0.398971
v 0.564230 0.000000 0.000000
v 0.398971 0.000000 -0.398971
v 0.000000 0.054081 -0.269519
v -0.190579 0.054081 -0.190579
v -0.269519 0.054081 0.000000
v -0.190579 0.054081 0.190579
v 0.000000 0.054081 0.269519
v 0.190579 0.054081 0.190579
v 0.269519 0.054081 0.000000
v 0.190579 0.054081 -0.190579
v 0.000000 0.129529 -0.060081
v -0.042484 0.129529 -0.042484
v -0.060081 0.129529 -0.000000
v -0.042484 0.129529 0.042484
v 0.000000 0.129529 0.060081
v 0.042484 0.129529 0.042484
v 0.060081 0.129529 -0.000000
v 0.042484 0.129529 -0.042484
v 0.000000 1.036895 -0.060081
v -0.042484 1.036895 -0.042484
v -0.060081 1.036895 -0.000000
v -0.042484 1.036895 0.042484
v 0.000000 1.036895 0.060081
v 0.042484 1.036895 0.042484
v 0.060081 1.036895 -0.000000
v 0.042484 1.036895 -0.042484
v 0.000000 0.999171 -0.177006
v -0.125162 0.999171 -0.125162
v -0.177006 0.999171 0.000000
v -0.125162 0.999171 0.125162
v 0.000000 0.999171 0.177006
v 0.125162 0.999171 0.125162
v 0.177006 0.999171 0.000000
v 0.125162 0.999171 -0.125162
v 0.000000 0.999171 -0.234573
v -0.165868 0.999171 -0.165868
v -0.234573 0.999171 0.000000
v -0.165868 0.999171 0.165868
v 0.000000 0.999171 0.234573
v 0.165868 0.999171 0.165868
v 0.234573 0.999171 0.000000
v 0.165868 0.999171 -0.165868
v -0.000000 1.088518 -0.422152
v -0.298507 1.088518 -0.298507
v -0.422153 1.088518 0.000000
v -0.298507 1.088518 0.298507
v -0.000000 1.088518 0.422153
v 0.298507 1.088518 0.298507
v 0.422153 1.088518 0.000000
v 0.298507 1.088518 -0.298507
v -0.000000 1.267211 -0.594222
v -0.420179 1.267211 -0.420179
v -0.594223 1.267211 0.000000
v -0.420179 1.267211 0.420179
v -0.000000 1.267211 0.594223
v 0.420179 1.267211 0.420179
v 0.594222 1.267211 0.000000
v 0.420179 1.267211 -0.420179
v -0.000000 1.821161 -0.657500
v -0.464923 1.821161 -0.464923
v -0.657500 1.821161 0.000000
v -0.464923 1.821161 0.464923
v -0.000000 1.821161 0.657500
v 0.464923 1.821161 0.464923
v 0.657500 1.821161 0.000000
v 0.464923 1.821161 -0.464923
v -0.453648 1.544186 -0.453648
v -0.641555 1.544186 0.000000
v 0.641555 1.544186 0.000000
v 0.453648 1.544186 -0.453648
v -0.000000 1.544186 0.641555
v 0.453648 1.544186 0.453648
v -0.453648 1.544186 0.453648
v -0.000000 1.544186 -0.641555
v -0.000000 0.016649 -0.567285
v -0.401131 0.016649 -0.401131
v -0.567285 0.016649 0.000000
v -0.401131 0.016649 0.401131
v -0.000000 0.016649 0.567285
v 0.401131 0.016649 0.401131
v 0.567285 0.016649 0.000000
v 0.401131 0.016649 -0.401131
v 0.000000 0.070508 -0.273604
v -0.193467 0.070508 -0.193467
v -0.273604 0.070508 0.000000
v -0.193467 0.070508 0.193467
v 0.000000 0.070508 0.273604
v 0.193467 0.070508 0.193467
v 0.273604 0.070508 0.000000
v 0.193467 0.070508 -0.193467
v 0.000000 0.140563 -0.072918
v -0.051561 0.140563 -0.051561
v -0.072918 0.140563 -0.000000
v -0.051561 0.140563 0.051561
v 0.000000 0.140563 0.072918
v 0.051561 0.140563 0.051561
v 0.072918 0.140563 -0.000000
v 0.051561 0.140563 -0.051561
v 0.000000 1.021566 -0.067259
v -0.047559 1.021566 -0.047559
v -0.067259 1.021566 -0.000000
v -0.047559 1.021566 0.047559
v 0.000000 1.021566 0.067259
v 0.047559 1.021566 0.047559
v 0.067259 1.021566 -0.000000
v 0.047559 1.021566 -0.047559
v 0.000000 0.982361 -0.175024
v -0.123761 0.982361 -0.123761
v -0.175024 0.982361 0.000000
v -0.123761 0.982361 0.123761
v 0.000000 0.982361 0.175024
v 0.123761 0.982361 0.123761
v 0.175024 0.982361 0.000000
v 0.123761 0.982361 -0.123761
v -0.000000 0.982880 -0.239168
v -0.169117 0.982880 -0.169117
v -0.239168 0.982880 0.000000
v -0.169117 0.982880 0.169117
v 0.000000 0.982880 0.239168
v 0.169117 0.982880 0.169117
v 0.239168 0.982880 0.000000
v 0.169117 0.982880 -0.169117
v -0.000000 1.075135 -0.432517
v -0.305836 1.075135 -0.305836
v -0.432517 1.075135 0.000000
v -0.305836 1.075135 0.305836
v -0.000000 1.075135 0.432517
v 0.305836 1.075135 0.305836
v 0.432517 1.075135 0.000000
v 0.305836 1.075135 -0.305836
v -0.000000 1.260029 -0.609550
v -0.431017 1.260029 -0.431017
v -0.609550 1.260029 0.000000
v -0.431017 1.260029 0.431017
v -0.000000 1.260029 0.609550
v 0.431017 1.260029 0.431017
v 0.609550 1.260029 0.000000
v 0.431017 1.260029 -0.431017
v -0.000000 1.820188 -0.674399
v -0.476872 1.820188 -0.476872
v -0.674399 1.820188 0.000000
v -0.476872 1.820188 0.476872
v -0.000000 1.820188 0.674399
v 0.476872 1.820188 0.476872
v 0.674399 1.820188 0.000000
v 0.476872 1.820188 -0.476872
v -0.465542 1.542297 -0.465542
v -0.658377 1.542297 0.000000
v 0.658376 1.542297 0.000000
v 0.465542 1.542297 -0.465542
v -0.000000 1.542297 0.658377
v 0.465542 1.542297 0.465542
v -0.465542 1.542297 0.465542
v -0.000000 1.542297 -0.658376
vn 0.1800 -0.9808 0.0746
vn -0.1800 -0.9808 0.0746
vn -0.0746 -0.9808 -0.1800
vn 0.1800 -0.9808 -0.0746
vn 0.0746 -0.9808 0.1800
vn -0.0746 -0.9808 0.1800
vn -0.1800 -0.9808 -0.0746
vn 0.0746 -0.9808 -0.1800
vn -0.1390 -0.9317 -0.3356
vn 0.3356 -0.9317 -0.1390
vn 0.1390 -0.9317 0.3356
vn -0.1390 -0.9317 0.3356
vn -0.3356 -0.9317 -0.1390
vn 0.1390 -0.9317 -0.3356
vn 0.3356 -0.9317 0.1390
vn -0.3356 -0.9317 0.1390
vn -0.9239 -0.0000 0.3827
vn -0.3827 -0.0000 -0.9239
vn 0.9239 -0.0000 -0.3827
vn 0.3827 -0.0000 0.9239
vn -0.3827 -0.0000 0.9239
vn -0.9239 -0.0000 -0.3827
vn 0.3827 -0.0000 -0.9239
vn 0.9239 -0.0000 0.3827
vn 0.3046 0.9441 0.1262
vn -0.1262 0.9441 0.3046
vn -0.3046 0.9441 -0.1262
vn 0.3046 0.9441 -0.1262
vn 0.1262 0.9441 0.3046
vn -0.3046 0.9441 0.1262
vn -0.1262 0.9441 -0.3046
vn 0.1262 0.9441 -0.3046
vn -0.0000 1.0000 -0.0000
vn -0.4234 0.8888 0.1754
vn -0.1754 0.8888 -0.4234
vn 0.4234 0.8888 -0.1754
vn 0.1754 0.8888 0.4234
vn -0.1754 0.8888 0.4234
vn -0.4234 0.8888 -0.1754
vn 0.1754 0.8888 -0.4234
vn 0.4234 0.8888 0.1754
vn -0.6903 0.6647 0.2859
vn -0.2859 0.6647 -0.6903
vn 0.6903 0.6647 -0.2859
vn 0.2859 0.6647 0.6903
vn -0.2859 0.6647 0.6903
vn -0.6903 0.6647 -0.2859
vn 0.2859 0.6647 -0.6903
vn 0.6903 0.6647 0.2859
vn 0.9226 0.0531 0.3821
vn -0.9226 0.0531 0.3821
vn -0.3821 0.0531 -0.9226
vn 0.9226 0.0531 -0.3821
vn 0.3821 0.0531 0.9226
vn -0.3821 0.0531 0.9226
vn -0.9226 0.0531 -0.3821
vn 0.3821 0.0531 -0.9226
vn 0.3780 0.1560 -0.9126
vn -0.9126 0.1560 -0.3780
vn -0.3780 0.1560 0.9126
vn 0.3780 0.1560 0.9126
vn 0.9126 0.1560 -0.3780
vn -0.3780 0.1560 -0.9126
vn -0.9126 0.1560 0.3780
vn 0.9126 0.1560 0.3780
vn -0.1799 0.9809 -0.0745
vn 0.1799 0.9809 -0.0745
vn 0.0745 0.9809 0.1799
vn -0.1799 0.9809 0.0745
vn -0.0745 0.9809 -0.1799
vn 0.0745 0.9809 -0.1799
vn 0.1799 0.9809 0.0745
vn -0.0745 0.9809 0.1799
vn 0.1353 0.9355 0.3265
vn -0.3265 0.9355 0.1353
vn -0.1353 0.9355 -0.3265
vn 0.1353 0.9355 -0.3265
vn 0.3265 0.9355 0.1353
vn -0.1353 0.9355 0.3265
vn -0.3265 0.9355 -0.1353
vn 0.3265 0.9355 -0.1353
vn 0.9239 0.0059 -0.3827
vn 0.3827 0.0059 0.9239
vn -0.9239 0.0059 0.3827
vn -0.3827 0.0059 -0.9239
vn 0.3827 0.0059 -0.9239
vn 0.9239 0.0059 0.3827
vn -0.3827 0.0059 0.9239
vn -0.9239 0.0059 -0.3827
vn -0.3385 -0.9305 -0.1402
vn 0.1402 -0.9305 -0.3385
vn 0.3385 -0.9305 0.1402
vn -0.3385 -0.9305 0.1402
vn -0.1402 -0.9305 -0.3385
vn 0.3385 -0.9305 -0.1402
vn 0.1402 -0.9305 0.3385
vn -0.1402 -0.9305 0.3385
vn -0.0034 -1.0000 -0.0081
vn 0.0034 -1.0000 -0.0081
vn 0.0081 -1.0000 0.0034
vn -0.0034 -1.0000 0.0081
vn -0.0081 -1.0000 -0.0034
vn 0.0081 -1.0000 -0.0034
vn 0.0034 -1.0000 0.0081
vn -0.0081 -1.0000 0.0034
vn 0.4239 -0.8885 -0.1756
vn 0.1756 -0.8885 0.4239
vn -0.4239 -0.8885 0.1756
vn -0.1756 -0.8885 -0.4239
vn 0.1756 -0.8885 -0.4239
vn 0.4239 -0.8885 0.1756
vn -0.1756 -0.8885 0.4239
vn -0.4239 -0.8885 -0.1756
vn 0.6920 -0.6626 -0.2866
vn 0.2866 -0.6626 0.6920
vn -0.6920 -0.6626 0.2866
vn -0.2866 -0.6626 -0.6920
vn 0.2866 -0.6626 -0.6920
vn 0.6920 -0.6626 0.2866
vn -0.2866 -0.6626 0.6920
vn -0.6920 -0.6626 -0.2866
vn -0.9226 -0.0532 -0.3821
vn 0.9226 -0.0532 -0.3821
vn 0.3821 -0.0532 0.9226
vn -0.9226 -0.0532 0.3821
vn -0.3821 -0.0532 -0.9226
vn 0.3821 -0.0532 -0.9226
vn 0.9226 -0.0532 0.3821
vn -0.3821 -0.0532 0.9226
vn -0.3779 -0.1578 0.9123
vn 0.9123 -0.1578 0.3779
vn 0.3779 -0.1578 -0.9123
vn -0.3779 -0.1578 -0.9123
vn -0.9123 -0.1578 0.3779
vn 0.3779 -0.1578 0.9123
vn 0.9123 -0.1578 -0.3779
vn -0.9123 -0.1578 -0.3779
vn -0.3773 -0.1671 -0.9109
vn -0.9109 -0.1672 -0.3773
vn -0.9109 -0.1672 0.3773
vn -0.3773 -0.1672 0.9109
vn 0.3773 -0.1671 0.9109
vn 0.9109 -0.1672 0.3773
vn 0.9109 -0.1672 -0.3773
vn 0.3773 -0.1672 -0.9109
vn -0.0238 0.9981 -0.0575
vn -0.0574 0.9981 -0.0238
vn -0.0575 0.9981 0.0238
vn -0.0238 0.9981 0.0575
vn 0.0238 0.9981 0.0575
vn 0.0575 0.9981 0.0238
vn 0.0575 0.9981 -0.0238
vn 0.0238 0.9981 -0.0575
vn -0.3773 -0.1672 -0.9109
vn -0.3773 -0.1671 0.9109
vn 0.3773 -0.1672 0.9109
vn 0.3773 -0.1671 -0.9109
vn -0.0575 0.9981 -0.0238
vt 0.635288 0.033379
vt 0.635290 0.033379
vt 0.635288 0.033379
vt 0.635288 0.033380
vt 0.635286 0.033379
vt 0.635288 0.033380
vt 0.635288 0.033380
vt 0.635290 0.033381
vt 0.635288 0.033382
vt 0.635290 0.033380
vt 0.635288 0.033380
vt 0.635288 0.033379
vt 0.635289 0.033378
vt 0.635288 0.033378
vt 0.635286 0.033381
vt 0.635288 0.033380
vt 0.635271 0.033388
vt 0.635308 0.033385
vt 0.635297 0.033395
vt 0.635307 0.033371
vt 0.635282 0.033362
vt 0.635297 0.033363
vt 0.635269 0.033373
vt 0.635283 0.033397
vt 0.638577 0.029775
vt 0.631582 0.030216
vt 0.632170 0.036808
vt 0.638703 0.036281
vt 0.640067 0.033086
vt 0.634977 0.028557
vt 0.630504 0.033677
vt 0.635582 0.037762
vt 0.623787 0.023733
vt 0.634525 0.018612
vt 0.626334 0.043853
vt 0.620334 0.034787
vt 0.645213 0.042748
vt 0.635959 0.046409
vt 0.645628 0.022684
vt 0.650037 0.033186
vt 0.648099 0.045778
vt 0.655044 0.033407
vt 0.634285 0.013661
vt 0.623842 0.047218
vt 0.615255 0.035517
vt 0.636208 0.050344
vt 0.649176 0.019171
vt 0.619866 0.020512
vt 0.417199 0.218040
vt 0.208570 0.309930
vt 0.276517 0.186498
vt 0.527429 0.102593
vt 0.628602 0.300959
vt 0.555289 0.181208
vt 0.621847 0.077020
vt 0.662418 0.074688
vt 0.224646 0.187139
vt 0.318829 0.112104
vt 0.420707 0.343464
vt 0.602918 0.060324
vt 0.642476 0.081339
vt 0.144655 0.441983
vt 0.610515 0.177299
vt 0.697685 0.427155
vt 0.615247 0.091543
vt 0.678972 0.055247
vt 0.671343 0.088464
vt 0.098495 0.295822
vt 0.425788 0.477476
vt 0.585288 0.074087
vt 0.643754 0.096297
vt 0.680430 0.105420
vt 0.648110 0.136582
vt 0.645835 0.114899
vt 0.418478 0.815965
vt 0.212681 0.958819
vt 0.080062 0.799448
vt 0.779315 0.604842
vt 0.624355 0.921258
vt 0.762500 0.788131
vt 0.603573 0.132976
vt 0.608963 0.111005
vt 0.712799 0.085186
vt 0.689448 0.124922
vt 0.031759 0.644425
vt 0.019625 0.825141
vt 0.422927 0.993594
vt 0.561980 0.116493
vt 0.572509 0.094663
vt 0.698081 0.066944
vt 0.710945 0.265233
vt 0.725144 0.103988
vt 0.789628 0.786583
s 0
usemtl Material
f 2/1/1 11/2/1 3/3/1
f 7/4/2 16/5/2 8/6/2
f 6/7/3 13/8/3 14/9/3
f 3/3/4 12/10/4 4/11/4
f 1/12/5 10/13/5 2/1/5
f 8/6/6 9/14/6 1/12/6
f 6/7/7 15/15/7 7/4/7
f 4/11/8 13/8/8 5/16/8
f 13/8/9 22/17/9 14/9/9
f 12/10/10 19/18/10 20/19/10
f 9/14/11 18/20/11 10/13/11
f 9/14/12 24/21/12 17/22/12
f 14/9/13 23/23/13 15/15/13
f 12/10/14 21/24/14 13/8/14
f 10/13/15 19/18/15 11/2/15
f 15/15/16 24/21/16 16/5/16
f 23/23/17 32/25/17 24/21/17
f 21/24/18 30/26/18 22/17/18
f 19/18/19 28/27/19 20/19/19
f 17/22/20 26/28/20 18/20/20
f 24/21/21 25/29/21 17/22/21
f 22/17/22 31/30/22 23/23/22
f 20/19/23 29/31/23 21/24/23
f 18/20/24 27/32/24 19/18/24
f 31/30/25 38/33/25 39/34/25
f 29/31/26 36/35/26 37/36/26
f 27/32/27 34/37/27 35/38/27
f 32/25/28 39/34/28 40/39/28
f 29/31/29 38/33/29 30/26/29
f 27/32/30 36/35/30 28/27/30
f 25/29/31 34/37/31 26/28/31
f 32/25/32 33/40/32 25/29/32
f 33/40/33 42/41/33 34/37/33
f 40/39/33 41/42/33 33/40/33
f 38/33/33 47/43/33 39/34/33
f 37/36/33 44/44/33 45/45/33
f 35/38/33 42/41/33 43/46/33
f 39/34/33 48/47/33 40/39/33
f 37/36/33 46/48/33 38/33/33
f 35/38/33 44/44/33 36/35/33
f 47/49/34 56/50/34 48/51/34
f 45/52/35 54/53/35 46/54/35
f 43/46/36 52/55/36 44/44/36
f 41/42/37 50/56/37 42/41/37
f 48/51/38 49/57/38 41/58/38
f 47/49/39 54/53/39 55/59/39
f 45/45/40 52/55/40 53/60/40
f 43/46/41 50/56/41 51/61/41
f 55/59/42 64/62/42 56/50/42
f 53/63/43 62/64/43 54/53/43
f 51/61/44 60/65/44 52/55/44
f 49/66/45 58/67/45 50/56/45
f 56/50/46 57/68/46 49/57/46
f 55/59/47 62/64/47 63/69/47
f 52/55/48 61/70/48 53/60/48
f 51/61/49 58/67/49 59/71/49
f 73/72/50 67/73/50 74/74/50
f 75/75/51 72/76/51 76/77/51
f 77/78/52 70/79/52 78/80/52
f 74/74/53 68/81/53 79/82/53
f 80/83/54 66/84/54 73/72/54
f 80/85/55 72/76/55 65/86/55
f 78/80/56 71/87/56 75/75/56
f 79/82/57 69/88/57 77/89/57
f 61/70/58 79/82/58 77/89/58
f 63/69/59 78/80/59 75/75/59
f 64/62/60 80/85/60 57/68/60
f 57/90/61 73/72/61 58/67/61
f 60/65/62 74/74/62 79/82/62
f 61/91/63 78/80/63 62/64/63
f 64/62/64 75/75/64 76/77/64
f 58/67/65 74/74/65 59/71/65
f 91/2/66 82/1/66 83/3/66
f 96/5/67 87/4/67 88/6/67
f 86/7/68 93/8/68 85/16/68
f 92/10/69 83/3/69 84/11/69
f 90/13/70 81/12/70 82/1/70
f 89/14/71 88/6/71 81/12/71
f 95/15/72 86/7/72 87/4/72
f 93/8/73 84/11/73 85/16/73
f 102/17/74 93/8/74 94/9/74
f 100/19/75 91/2/75 92/10/75
f 90/13/76 97/22/76 89/14/76
f 97/22/77 96/5/77 89/14/77
f 103/23/78 94/9/78 95/15/78
f 101/24/79 92/10/79 93/8/79
f 99/18/80 90/13/80 91/2/80
f 104/21/81 95/15/81 96/5/81
f 104/21/82 111/30/82 103/23/82
f 110/26/83 101/24/83 102/17/83
f 108/27/84 99/18/84 100/19/84
f 106/28/85 97/22/85 98/20/85
f 105/29/86 104/21/86 97/22/86
f 111/30/87 102/17/87 103/23/87
f 109/31/88 100/19/88 101/24/88
f 107/32/89 98/20/89 99/18/89
f 119/34/90 110/26/90 111/30/90
f 109/31/91 116/35/91 108/27/91
f 107/32/92 114/37/92 106/28/92
f 120/39/93 111/30/93 112/25/93
f 118/33/94 109/31/94 110/26/94
f 116/35/95 107/32/95 108/27/95
f 114/37/96 105/29/96 106/28/96
f 113/40/97 112/25/97 105/29/97
f 122/41/98 113/40/98 114/37/98
f 121/42/99 120/39/99 113/40/99
f 119/34/100 126/48/100 118/33/100
f 117/36/101 124/44/101 116/35/101
f 115/38/102 122/41/102 114/37/102
f 120/39/103 127/43/103 119/34/103
f 126/48/104 117/36/104 118/33/104
f 124/44/105 115/38/105 116/35/105
f 128/51/106 135/59/106 127/49/106
f 134/53/107 125/52/107 126/54/107
f 132/55/108 123/46/108 124/44/108
f 130/56/109 121/42/109 122/41/109
f 129/57/110 128/51/110 121/58/110
f 135/59/111 126/54/111 127/49/111
f 125/45/112 132/55/112 124/44/112
f 131/61/113 122/41/113 123/46/113
f 144/62/114 135/59/114 136/50/114
f 142/64/115 133/63/115 134/53/115
f 140/65/116 131/61/116 132/55/116
f 130/56/117 137/90/117 129/66/117
f 137/68/118 136/50/118 129/57/118
f 143/69/119 134/53/119 135/59/119
f 133/60/120 140/65/120 132/55/120
f 131/61/121 138/67/121 130/56/121
f 147/73/122 153/72/122 154/74/122
f 152/76/123 155/75/123 156/77/123
f 150/79/124 157/78/124 158/80/124
f 148/81/125 154/74/125 159/82/125
f 146/84/126 160/83/126 153/72/126
f 145/86/127 156/77/127 160/85/127
f 151/87/128 158/80/128 155/75/128
f 157/89/129 148/81/129 159/82/129
f 141/70/130 159/82/130 140/65/130
f 155/75/131 142/64/131 143/69/131
f 160/85/132 144/62/132 137/68/132
f 153/72/133 137/90/133 138/67/133
f 159/82/134 139/71/134 140/65/134
f 158/80/135 141/91/135 142/64/135
f 156/77/136 143/69/136 144/62/136
f 154/74/137 138/67/137 139/71/137
f 2/1/138 81/12/138 1/12/138
f 2/1/139 83/3/139 82/1/139
f 4/11/140 83/3/140 3/3/140
f 4/11/141 85/16/141 84/11/141
f 6/7/142 85/16/142 5/16/142
f 6/7/143 87/4/143 86/7/143
f 8/6/144 87/4/144 7/4/144
f 8/6/145 81/12/145 88/6/145
f 66/84/146 145/92/146 146/84/146
f 66/84/147 147/73/147 67/73/147
f 67/73/148 148/81/148 68/81/148
f 68/81/149 149/88/149 69/88/149
f 69/93/150 150/79/150 70/79/150
f 71/87/151 150/79/151 151/87/151
f 71/87/152 152/76/152 72/76/152
f 65/86/153 152/76/153 145/86/153
f 2/1/1 10/13/1 11/2/1
f 7/4/2 15/15/2 16/5/2
f 6/7/3 5/16/3 13/8/3
f 3/3/4 11/2/4 12/10/4
f 1/12/5 9/14/5 10/13/5
f 8/6/6 16/5/6 9/14/6
f 6/7/7 14/9/7 15/15/7
f 4/11/8 12/10/8 13/8/8
f 13/8/9 21/24/9 22/17/9
f 12/10/10 11/2/10 19/18/10
f 9/14/11 17/22/11 18/20/11
f 9/14/12 16/5/12 24/21/12
f 14/9/13 22/17/13 23/23/13
f 12/10/14 20/19/14 21/24/14
f 10/13/15 18/20/15 19/18/15
f 15/15/16 23/23/16 24/21/16
f 23/23/17 31/30/17 32/25/17
f 21/24/18 29/31/18 30/26/18
f 19/18/19 27/32/19 28/27/19
f 17/22/20 25/29/20 26/28/20
f 24/21/21 32/25/21 25/29/21
f 22/17/22 30/26/22 31/30/22
f 20/19/23 28/27/23 29/31/23
f 18/20/24 26/28/24 27/32/24
f 31/30/25 30/26/25 38/33/25
f 29/31/26 28/27/26 36/35/26
f 27/32/27 26/28/27 34/37/27
f 32/25/28 31/30/28 39/34/28
f 29/31/29 37/36/29 38/33/29
f 27/32/30 35/38/30 36/35/30
f 25/29/31 33/40/31 34/37/31
f 32/25/32 40/39/32 33/40/32
f 33/40/33 41/42/33 42/41/33
f 40/39/33 48/47/33 41/42/33
f 38/33/33 46/48/33 47/43/33
f 37/36/33 36/35/33 44/44/33
f 35/38/33 34/37/33 42/41/33
f 39/34/33 47/43/33 48/47/33
f 37/36/33 45/45/33 46/48/33
f 35/38/33 43/46/33 44/44/33
f 47/49/34 55/59/34 56/50/34
f 45/52/35 53/63/35 54/53/35
f 43/46/36 51/61/36 52/55/36
f 41/42/37 49/66/37 50/56/37
f 48/51/38 56/50/38 49/57/38
f 47/49/39 46/54/39 54/53/39
f 45/45/40 44/44/40 52/55/40
f 43/46/41 42/41/41 50/56/41
f 55/59/42 63/69/42 64/62/42
f 53/63/43 61/91/43 62/64/43
f 51/61/44 59/71/44 60/65/44
f 49/66/45 57/90/45 58/67/45
f 56/50/46 64/62/46 57/68/46
f 55/59/47 54/53/47 62/64/47
f 52/55/48 60/65/48 61/70/48
f 51/61/49 50/56/49 58/67/49
f 73/72/50 66/84/50 67/73/50
f 75/75/51 71/87/51 72/76/51
f 77/78/52 69/93/52 70/79/52
f 74/74/53 67/73/53 68/81/53
f 80/83/54 65/92/54 66/84/54
f 80/85/55 76/77/55 72/76/55
f 78/80/56 70/79/56 71/87/56
f 79/82/57 68/81/57 69/88/57
f 61/70/58 60/65/58 79/82/58
f 63/69/59 62/64/59 78/80/59
f 64/62/60 76/77/60 80/85/60
f 57/90/61 80/83/61 73/72/61
f 60/65/62 59/71/62 74/74/62
f 61/91/63 77/78/63 78/80/63
f 64/62/64 63/69/64 75/75/64
f 58/67/65 73/72/65 74/74/65
f 91/2/66 90/13/66 82/1/66
f 96/5/67 95/15/67 87/4/67
f 86/7/68 94/9/68 93/8/68
f 92/10/69 91/2/69 83/3/69
f 90/13/70 89/14/70 81/12/70
f 89/14/71 96/5/71 88/6/71
f 95/15/72 94/9/72 86/7/72
f 93/8/73 92/10/73 84/11/73
f 102/17/74 101/24/74 93/8/74
f 100/19/75 99/18/75 91/2/75
f 90/13/76 98/20/76 97/22/76
f 97/22/77 104/21/77 96/5/77
f 103/23/78 102/17/78 94/9/78
f 101/24/79 100/19/79 92/10/79
f 99/18/80 98/20/80 90/13/80
f 104/21/81 103/23/81 95/15/81
f 104/21/82 112/25/82 111/30/82
f 110/26/83 109/31/83 101/24/83
f 108/27/84 107/32/84 99/18/84
f 106/28/85 105/29/85 97/22/85
f 105/29/86 112/25/86 104/21/86
f 111/30/87 110/26/87 102/17/87
f 109/31/88 108/27/88 100/19/88
f 107/32/89 106/28/89 98/20/89
f 119/34/90 118/33/90 110/26/90
f 109/31/91 117/36/91 116/35/91
f 107/32/92 115/38/92 114/37/92
f 120/39/93 119/34/93 111/30/93
f 118/33/94 117/36/94 109/31/94
f 116/35/95 115/38/95 107/32/95
f 114/37/96 113/40/96 105/29/96
f 113/40/97 120/39/97 112/25/97
f 122/41/98 121/42/98 113/40/98
f 121/42/99 128/47/99 120/39/99
f 119/34/100 127/43/100 126/48/100
f 117/36/101 125/45/101 124/44/101
f 115/38/102 123/46/102 122/41/102
f 120/39/103 128/47/103 127/43/103
f 126/48/104 125/45/104 117/36/104
f 124/44/105 123/46/105 115/38/105
f 128/51/106 136/50/106 135/59/106
f 134/53/107 133/63/107 125/52/107
f 132/55/108 131/61/108 123/46/108
f 130/56/109 129/66/109 121/42/109
f 129/57/110 136/50/110 128/51/110
f 135/59/111 134/53/111 126/54/111
f 125/45/112 133/60/112 132/55/112
f 131/61/113 130/56/113 122/41/113
f 144/62/114 143/69/114 135/59/114
f 142/64/115 141/91/115 133/63/115
f 140/65/116 139/71/116 131/61/116
f 130/56/117 138/67/117 137/90/117
f 137/68/118 144/62/118 136/50/118
f 143/69/119 142/64/119 134/53/119
f 133/60/120 141/70/120 140/65/120
f 131/61/121 139/71/121 138/67/121
f 147/73/122 146/84/122 153/72/122
f 152/76/123 151/87/123 155/75/123
f 150/79/124 149/93/124 157/78/124
f 148/81/125 147/73/125 154/74/125
f 146/84/126 145/92/126 160/83/126
f 145/86/127 152/76/127 156/77/127
f 151/87/128 150/79/128 158/80/128
f 157/89/129 149/88/129 148/81/129
f 141/70/130 157/89/130 159/82/130
f 155/75/131 158/80/131 142/64/131
f 160/85/132 156/77/132 144/62/132
f 153/72/133 160/83/133 137/90/133
f 159/82/134 154/74/134 139/71/134
f 158/80/135 157/78/135 141/91/135
f 156/77/136 155/75/136 143/69/136
f 154/74/137 153/72/137 138/67/137
f 2/1/154 82/1/154 81/12/154
f 2/1/139 3/3/139 83/3/139
f 4/11/140 84/11/140 83/3/140
f 4/11/155 5/16/155 85/16/155
f 6/7/156 86/7/156 85/16/156
f 6/7/143 7/4/143 87/4/143
f 8/6/144 88/6/144 87/4/144
f 8/6/157 1/12/157 81/12/157
f 66/84/146 65/92/146 145/92/146
f 66/84/158 146/84/158 147/73/158
f 67/73/148 147/73/148 148/81/148
f 68/81/149 148/81/149 149/88/149
f 69/93/150 149/93/150 150/79/150
f 71/87/151 70/79/151 150/79/151
f 71/87/152 151/87/152 152/76/152
f 65/86/153 72/76/153 152/76/153
